<mxfile host="app.diagrams.net" modified="2022-10-31T15:50:14.913Z" agent="5.0 (Windows NT 10.0; Win64; x64) AppleWebKit/537.36 (KHTML, like Gecko) Chrome/106.0.0.0 Safari/537.36" etag="fR3HzhFpi-u_DXjAh1sq" version="20.5.1" type="github">
  <diagram id="t61MXUw7peD3HUVlGehA" name="Página-1">
    <mxGraphModel dx="868" dy="450" grid="1" gridSize="10" guides="1" tooltips="1" connect="1" arrows="1" fold="1" page="1" pageScale="1" pageWidth="827" pageHeight="1169" math="0" shadow="0">
      <root>
        <mxCell id="0" />
        <mxCell id="1" parent="0" />
        <mxCell id="be1h6u7VKQigyVjVku2L-1" value="&lt;font style=&quot;vertical-align: inherit;&quot;&gt;&lt;font style=&quot;vertical-align: inherit;&quot;&gt;sistema de cadastro&lt;br&gt;(evento)&lt;br&gt;&lt;/font&gt;&lt;/font&gt;" style="rounded=0;whiteSpace=wrap;html=1;fillColor=#dae8fc;strokeColor=#6c8ebf;" vertex="1" parent="1">
          <mxGeometry x="280" y="90" width="180" height="80" as="geometry" />
        </mxCell>
        <mxCell id="be1h6u7VKQigyVjVku2L-12" value="" style="edgeStyle=segmentEdgeStyle;endArrow=classic;html=1;rounded=0;" edge="1" parent="1" source="be1h6u7VKQigyVjVku2L-1">
          <mxGeometry width="50" height="50" relative="1" as="geometry">
            <mxPoint x="410" y="180" as="sourcePoint" />
            <mxPoint x="440" y="240" as="targetPoint" />
            <Array as="points">
              <mxPoint x="400" y="240" />
            </Array>
          </mxGeometry>
        </mxCell>
        <mxCell id="be1h6u7VKQigyVjVku2L-14" value="&lt;font style=&quot;vertical-align: inherit;&quot;&gt;&lt;font style=&quot;vertical-align: inherit;&quot;&gt;maior de 18 anos&lt;/font&gt;&lt;/font&gt;" style="rhombus;whiteSpace=wrap;html=1;" vertex="1" parent="1">
          <mxGeometry x="480" y="180" width="140" height="130" as="geometry" />
        </mxCell>
        <mxCell id="be1h6u7VKQigyVjVku2L-15" value="&lt;font style=&quot;vertical-align: inherit;&quot;&gt;&lt;font style=&quot;vertical-align: inherit;&quot;&gt;menor de 18 anos&lt;/font&gt;&lt;/font&gt;" style="rhombus;whiteSpace=wrap;html=1;" vertex="1" parent="1">
          <mxGeometry x="650" y="182.5" width="140" height="125" as="geometry" />
        </mxCell>
        <mxCell id="be1h6u7VKQigyVjVku2L-17" value="" style="endArrow=none;dashed=1;html=1;rounded=0;entryX=0;entryY=0.5;entryDx=0;entryDy=0;" edge="1" parent="1" source="be1h6u7VKQigyVjVku2L-14" target="be1h6u7VKQigyVjVku2L-15">
          <mxGeometry width="50" height="50" relative="1" as="geometry">
            <mxPoint x="600" y="270" as="sourcePoint" />
            <mxPoint x="680" y="260" as="targetPoint" />
            <Array as="points" />
          </mxGeometry>
        </mxCell>
        <mxCell id="be1h6u7VKQigyVjVku2L-19" value="" style="endArrow=classic;html=1;rounded=0;" edge="1" parent="1">
          <mxGeometry width="50" height="50" relative="1" as="geometry">
            <mxPoint x="549.5" y="320" as="sourcePoint" />
            <mxPoint x="549.5" y="370" as="targetPoint" />
          </mxGeometry>
        </mxCell>
        <mxCell id="be1h6u7VKQigyVjVku2L-20" value="" style="endArrow=classic;html=1;rounded=0;" edge="1" parent="1">
          <mxGeometry width="50" height="50" relative="1" as="geometry">
            <mxPoint x="719.5" y="320" as="sourcePoint" />
            <mxPoint x="719.5" y="370" as="targetPoint" />
          </mxGeometry>
        </mxCell>
        <mxCell id="be1h6u7VKQigyVjVku2L-25" value="" style="edgeStyle=orthogonalEdgeStyle;rounded=0;orthogonalLoop=1;jettySize=auto;html=1;" edge="1" parent="1" source="be1h6u7VKQigyVjVku2L-21">
          <mxGeometry relative="1" as="geometry">
            <mxPoint x="550" y="520" as="targetPoint" />
          </mxGeometry>
        </mxCell>
        <mxCell id="be1h6u7VKQigyVjVku2L-28" value="" style="edgeStyle=orthogonalEdgeStyle;rounded=0;orthogonalLoop=1;jettySize=auto;html=1;" edge="1" parent="1" source="be1h6u7VKQigyVjVku2L-21" target="be1h6u7VKQigyVjVku2L-27">
          <mxGeometry relative="1" as="geometry" />
        </mxCell>
        <mxCell id="be1h6u7VKQigyVjVku2L-21" value="permitir cadastro" style="rounded=0;whiteSpace=wrap;html=1;" vertex="1" parent="1">
          <mxGeometry x="490" y="380" width="120" height="60" as="geometry" />
        </mxCell>
        <mxCell id="be1h6u7VKQigyVjVku2L-22" value="não &lt;br&gt;permitir cadastro" style="rounded=0;whiteSpace=wrap;html=1;" vertex="1" parent="1">
          <mxGeometry x="680" y="380" width="120" height="60" as="geometry" />
        </mxCell>
        <mxCell id="be1h6u7VKQigyVjVku2L-38" value="" style="edgeStyle=orthogonalEdgeStyle;rounded=0;orthogonalLoop=1;jettySize=auto;html=1;" edge="1" parent="1" source="be1h6u7VKQigyVjVku2L-26">
          <mxGeometry relative="1" as="geometry">
            <mxPoint x="550" y="720" as="targetPoint" />
          </mxGeometry>
        </mxCell>
        <mxCell id="be1h6u7VKQigyVjVku2L-26" value="verificar disponibilidade&amp;nbsp;&lt;br&gt;vagas" style="rhombus;whiteSpace=wrap;html=1;rounded=0;" vertex="1" parent="1">
          <mxGeometry x="463.75" y="525" width="172.5" height="120" as="geometry" />
        </mxCell>
        <mxCell id="be1h6u7VKQigyVjVku2L-30" value="" style="edgeStyle=orthogonalEdgeStyle;rounded=0;orthogonalLoop=1;jettySize=auto;html=1;" edge="1" parent="1" source="be1h6u7VKQigyVjVku2L-27">
          <mxGeometry relative="1" as="geometry">
            <mxPoint x="350" y="490" as="targetPoint" />
          </mxGeometry>
        </mxCell>
        <mxCell id="be1h6u7VKQigyVjVku2L-27" value="selecionar grupo pertencente" style="ellipse;whiteSpace=wrap;html=1;rounded=0;" vertex="1" parent="1">
          <mxGeometry x="290" y="380" width="120" height="60" as="geometry" />
        </mxCell>
        <mxCell id="be1h6u7VKQigyVjVku2L-31" value="participante" style="rhombus;whiteSpace=wrap;html=1;" vertex="1" parent="1">
          <mxGeometry x="250" y="480" width="80" height="80" as="geometry" />
        </mxCell>
        <mxCell id="be1h6u7VKQigyVjVku2L-32" value="palestrante" style="rhombus;whiteSpace=wrap;html=1;" vertex="1" parent="1">
          <mxGeometry x="372" y="480" width="80" height="80" as="geometry" />
        </mxCell>
        <mxCell id="be1h6u7VKQigyVjVku2L-33" value="" style="endArrow=none;dashed=1;html=1;rounded=0;" edge="1" parent="1">
          <mxGeometry width="50" height="50" relative="1" as="geometry">
            <mxPoint x="330" y="519.5" as="sourcePoint" />
            <mxPoint x="370" y="520" as="targetPoint" />
          </mxGeometry>
        </mxCell>
        <mxCell id="be1h6u7VKQigyVjVku2L-35" value="" style="edgeStyle=segmentEdgeStyle;endArrow=classic;html=1;rounded=0;" edge="1" parent="1">
          <mxGeometry width="50" height="50" relative="1" as="geometry">
            <mxPoint x="350" y="550" as="sourcePoint" />
            <mxPoint x="440" y="590" as="targetPoint" />
            <Array as="points">
              <mxPoint x="350" y="590" />
            </Array>
          </mxGeometry>
        </mxCell>
        <mxCell id="be1h6u7VKQigyVjVku2L-51" value="" style="edgeStyle=orthogonalEdgeStyle;rounded=0;orthogonalLoop=1;jettySize=auto;html=1;" edge="1" parent="1" source="be1h6u7VKQigyVjVku2L-39" target="be1h6u7VKQigyVjVku2L-50">
          <mxGeometry relative="1" as="geometry" />
        </mxCell>
        <mxCell id="be1h6u7VKQigyVjVku2L-39" value="&amp;lt;= 100" style="ellipse;whiteSpace=wrap;html=1;rounded=0;" vertex="1" parent="1">
          <mxGeometry x="580" y="730" width="120" height="60" as="geometry" />
        </mxCell>
        <mxCell id="be1h6u7VKQigyVjVku2L-42" value="&amp;gt;100" style="ellipse;whiteSpace=wrap;html=1;rounded=0;" vertex="1" parent="1">
          <mxGeometry x="410" y="730" width="120" height="60" as="geometry" />
        </mxCell>
        <mxCell id="be1h6u7VKQigyVjVku2L-43" value="" style="endArrow=none;dashed=1;html=1;rounded=0;" edge="1" parent="1">
          <mxGeometry width="50" height="50" relative="1" as="geometry">
            <mxPoint x="530" y="759.5" as="sourcePoint" />
            <mxPoint x="580" y="759.5" as="targetPoint" />
          </mxGeometry>
        </mxCell>
        <mxCell id="be1h6u7VKQigyVjVku2L-46" value="" style="edgeStyle=elbowEdgeStyle;elbow=vertical;endArrow=classic;html=1;rounded=0;" edge="1" parent="1">
          <mxGeometry width="50" height="50" relative="1" as="geometry">
            <mxPoint x="470" y="800" as="sourcePoint" />
            <mxPoint x="410" y="860" as="targetPoint" />
            <Array as="points">
              <mxPoint x="450" y="820" />
            </Array>
          </mxGeometry>
        </mxCell>
        <mxCell id="be1h6u7VKQigyVjVku2L-47" value="finalizar cadastro" style="rounded=0;whiteSpace=wrap;html=1;fillColor=#d5e8d4;strokeColor=#82b366;" vertex="1" parent="1">
          <mxGeometry x="354" y="880" width="156" height="80" as="geometry" />
        </mxCell>
        <mxCell id="be1h6u7VKQigyVjVku2L-50" value="suspender cadastro por preenchimento total de vagas&amp;nbsp;&lt;br&gt;disponiveis" style="shape=process;whiteSpace=wrap;html=1;backgroundOutline=1;rounded=0;fillColor=#ffe6cc;strokeColor=#d79b00;" vertex="1" parent="1">
          <mxGeometry x="580" y="830" width="190" height="100" as="geometry" />
        </mxCell>
      </root>
    </mxGraphModel>
  </diagram>
</mxfile>
